static_grf.mot
version=1
nRows=15
nColumns 19
inDegrees=yes
endheader
time	1_ground_force_vx	1_ground_force_vy	1_ground_force_vz	1_ground_force_px	1_ground_force_py	1_ground_force_pz	1_ground_torque_x	1_ground_torque_y	1_ground_torque_z	2_ground_force_vx	2_ground_force_vy	2_ground_force_vz	2_ground_force_px	2_ground_force_py	2_ground_force_pz	2_ground_torque_x	2_ground_torque_y	2_ground_torque_z
            0.005000	           -4.789571	          423.224621	          -31.282334	           -0.300548	            0.006153	           -0.391866	           -0.021446	            1.895009	           -0.140068	            3.539796	          489.921339	           34.408143	           -0.313214	            0.005371	           -0.702840	           -0.002799	           -0.387431	           -0.027210
            0.005500	           -4.651455	          422.502799	          -31.102344	           -0.300771	            0.006153	           -0.391992	           -0.021620	            1.963781	           -0.144563	            3.818881	          490.474944	           34.363066	           -0.313192	            0.005372	           -0.703104	           -0.003477	           -0.446549	           -0.031286
            0.006000	           -4.468263	          422.863562	          -31.147113	           -0.300694	            0.006154	           -0.392056	           -0.020824	            1.970702	           -0.145157	            3.632023	          490.291131	           34.080920	           -0.313306	            0.005371	           -0.702862	           -0.002925	           -0.394870	           -0.027448
            0.006500	           -4.560665	          423.044959	          -31.421248	           -0.300394	            0.006153	           -0.391762	           -0.021814	            2.023490	           -0.150293	            3.866957	          490.107668	           34.127091	           -0.313409	            0.005371	           -0.702814	           -0.003415	           -0.432876	           -0.030142
            0.007000	           -4.514268	          422.503415	          -31.240257	           -0.300700	            0.006154	           -0.392051	           -0.021650	            2.026287	           -0.149825	            3.866334	          490.291474	           34.221605	           -0.313261	            0.005372	           -0.702940	           -0.003505	           -0.444444	           -0.031022
            0.007500	           -4.514594	          423.044575	          -31.329650	           -0.300578	            0.006153	           -0.391883	           -0.021063	            1.973690	           -0.146167	            3.725140	          490.474940	           34.269250	           -0.313084	            0.005372	           -0.702911	           -0.003007	           -0.395910	           -0.027662
            0.008000	           -4.697625	          423.043950	          -31.191623	           -0.300302	            0.006154	           -0.392003	           -0.021017	            1.892661	           -0.139549	            3.537158	          490.657735	           34.457699	           -0.313012	            0.005373	           -0.703075	           -0.002968	           -0.411744	           -0.028916
            0.008500	           -4.606361	          422.864519	          -31.376047	           -0.300568	            0.006154	           -0.392037	           -0.021688	            1.990919	           -0.147724	            3.259903	          489.552986	           34.125379	           -0.313477	            0.005370	           -0.702778	           -0.002116	           -0.317810	           -0.022154
            0.009000	           -4.514220	          422.863750	          -31.192851	           -0.300344	            0.006153	           -0.391795	           -0.020893	            1.957109	           -0.144368	            3.866395	          490.290972	           34.362389	           -0.313268	            0.005371	           -0.702939	           -0.003075	           -0.389930	           -0.027329
            0.009500	           -4.698227	          423.225229	          -31.420133	           -0.300533	            0.006153	           -0.391791	           -0.021277	            1.916670	           -0.142293	            3.632064	          490.290796	           34.174776	           -0.312962	            0.005372	           -0.702900	           -0.002827	           -0.381656	           -0.026603
            0.010000	           -4.697789	          423.945309	          -31.187758	           -0.300245	            0.006152	           -0.391624	           -0.021176	            1.911020	           -0.140585	            3.396526	          490.657897	           34.270046	           -0.313019	            0.005373	           -0.703189	           -0.002550	           -0.368406	           -0.025731
            0.010500	           -4.651896	          423.044155	          -31.237597	           -0.300517	            0.006153	           -0.391785	           -0.020903	            1.900883	           -0.140361	            3.820107	          490.107499	           34.127111	           -0.313148	            0.005371	           -0.702812	           -0.002892	           -0.371057	           -0.025837
            0.011000	           -4.652351	          423.044942	          -31.421020	           -0.300332	            0.006153	           -0.391849	           -0.021274	            1.934471	           -0.143680	            3.725161	          490.474773	           34.316178	           -0.313079	            0.005372	           -0.702835	           -0.003253	           -0.428325	           -0.029968
            0.011500	           -4.468557	          423.224487	          -31.237279	           -0.300107	            0.006152	           -0.391683	           -0.020490	            1.940630	           -0.143234	            3.491034	          490.472923	           34.597846	           -0.313003	            0.005373	           -0.703179	           -0.002962	           -0.416154	           -0.029355
            0.012000	           -4.514220	          422.863750	          -31.192851	           -0.300470	            0.006155	           -0.392284	           -0.021408	            2.005320	           -0.147924	            3.678914	          490.290965	           34.174756	           -0.313304	            0.005371	           -0.702709	           -0.003072	           -0.409363	           -0.028534
